<?xml version="1.0" encoding="UTF-8" standalone="no"?>
<svg
   xmlns:dc="http://purl.org/dc/elements/1.1/"
   xmlns:cc="http://creativecommons.org/ns#"
   xmlns:rdf="http://www.w3.org/1999/02/22-rdf-syntax-ns#"
   xmlns:svg="http://www.w3.org/2000/svg"
   xmlns="http://www.w3.org/2000/svg"
   id="svg4865"
   version="1.1"
   viewBox="0 0 40.326225 38.923195"
   height="38.923195mm"
   width="40.326225mm">
  <defs
     id="defs4859" />
  <metadata
     id="metadata4862">
    <rdf:RDF>
      <cc:Work
         rdf:about="">
        <dc:format>image/svg+xml</dc:format>
        <dc:type
           rdf:resource="http://purl.org/dc/dcmitype/StillImage" />
        <dc:title></dc:title>
      </cc:Work>
    </rdf:RDF>
  </metadata>
  <g
     transform="translate(-17.828007,-23.909365)"
     id="layer1">
    <path
       d="m 31.308732,47.269479 c 0.0386,-0.06685 -6.817472,3.891503 -6.740281,3.891503 0.07719,0 -6.778876,-3.958352 -6.740281,-3.891503 0.0386,0.06685 0.0386,-7.849856 0,-7.783007 -0.0386,0.06685 6.817471,-3.891503 6.740281,-3.891503 -0.07719,0 6.778876,3.958352 6.740281,3.891503 -0.0386,-0.06685 -0.0386,7.849855 0,7.783007 z"
       id="path4867"
       style="fill:none;stroke-width:0.1;stroke:#000000;stroke-miterlimit:4;stroke-dasharray:none" />
    <path
       style="fill:none;stroke-width:0.1;stroke:#000000;stroke-miterlimit:4;stroke-dasharray:none"
       id="path4869"
       d="m 44.7314,47.269479 c 0.0386,-0.06685 -6.817471,3.891503 -6.740281,3.891503 0.07719,0 -6.778876,-3.958352 -6.740281,-3.891503 0.0386,0.06685 0.0386,-7.849856 0,-7.783007 -0.0386,0.06685 6.817472,-3.891503 6.740281,-3.891503 -0.07719,0 6.778877,3.958352 6.740281,3.891503 -0.0386,-0.06685 -0.0386,7.849855 0,7.783007 z" />
    <path
       d="m 58.154069,47.269479 c 0.0386,-0.06685 -6.817472,3.891503 -6.740281,3.891503 0.07719,0 -6.778876,-3.958352 -6.740281,-3.891503 0.0386,0.06685 0.0386,-7.849856 0,-7.783007 -0.0386,0.06685 6.817471,-3.891503 6.740281,-3.891503 -0.07719,0 6.778876,3.958352 6.740281,3.891503 -0.0386,-0.06685 -0.0386,7.849855 0,7.783007 z"
       id="path4871"
       style="fill:none;stroke-width:0.1;stroke:#000000;stroke-miterlimit:4;stroke-dasharray:none" />
    <path
       style="fill:none;stroke-width:0.1;stroke:#000000;stroke-miterlimit:4;stroke-dasharray:none"
       id="path4873"
       d="m 51.442086,35.583874 c 0.03859,-0.06685 -6.817471,3.891504 -6.740281,3.891504 0.07719,0 -6.778876,-3.958352 -6.740281,-3.891504 0.0386,0.06685 0.0386,-7.849855 0,-7.783006 -0.03859,0.06685 6.817472,-3.891503 6.740281,-3.891503 -0.07719,0 6.778876,3.958352 6.740281,3.891503 -0.0386,-0.06685 -0.0386,7.849855 0,7.783006 z" />
    <path
       d="m 37.991012,35.594924 c 0.0386,-0.06685 -6.817472,3.891503 -6.740282,3.891503 0.07719,0 -6.778876,-3.958352 -6.740281,-3.891503 0.0386,0.06685 0.0386,-7.849855 0,-7.783006 -0.0386,0.06685 6.817472,-3.891503 6.740282,-3.891503 -0.07719,0 6.778876,3.958352 6.740281,3.891503 -0.0386,-0.06685 -0.0386,7.849855 0,7.783006 z"
       id="path4875"
       style="fill:none;stroke-width:0.1;stroke:#000000;stroke-miterlimit:4;stroke-dasharray:none" />
    <path
       style="fill:none;stroke-width:0.1;stroke:#000000;stroke-miterlimit:4;stroke-dasharray:none"
       id="path4877"
       d="m 37.991012,58.941056 c 0.0386,-0.06685 -6.817472,3.891503 -6.740282,3.891503 0.07719,0 -6.778876,-3.958352 -6.740281,-3.891503 0.0386,0.06685 0.0386,-7.849855 0,-7.783006 -0.0386,0.06685 6.817472,-3.891503 6.740282,-3.891503 -0.07719,0 6.778876,3.958352 6.740281,3.891503 -0.0386,-0.06685 -0.0386,7.849855 0,7.783006 z" />
    <path
       d="m 51.41623,58.941056 c 0.0386,-0.06685 -6.817471,3.891503 -6.740281,3.891503 0.07719,0 -6.778876,-3.958352 -6.740281,-3.891503 0.0386,0.06685 0.0386,-7.849855 0,-7.783006 -0.0386,0.06685 6.817472,-3.891503 6.740281,-3.891503 -0.07719,0 6.778876,3.958352 6.740281,3.891503 -0.0386,-0.06685 -0.0386,7.849855 0,7.783006 z"
       id="path4879"
       style="fill:none;stroke-width:0.1;stroke:#000000;stroke-miterlimit:4;stroke-dasharray:none" />
  </g>
</svg>
